#!OML:ASF H:\Terrain\Patient Classification 1\Walking\liu\liu.ASF
:FULLY-SPECIFIED
:DEGREES
469
root 16.318501 26.094749 44.234699 5.944530 6.389850 4.255875
lowerback -7.546830 -5.990535 -5.981370
upperback 0.501265 -7.724745 2.849145
thorax 5.537235 -3.989490 5.635200
lowerneck -34.001850 -4.261860 -15.198900
upperneck 36.566250 -4.945215 15.120000
head 18.211651 -1.659540 7.489965
rclavicle -0.000000 -0.000000
rhumerus -68.062202 15.801450 -129.788101
rradius 58.194298
rwrist -29.794502
rhand -37.727100 -60.813000
rfingers 10.687531
rthumb 2.047980 -105.776108
lclavicle -0.000000 -0.000000
lhumerus -18.176250 -29.510250 127.340546
lradius 40.884148
lwrist 7.646835
lhand -22.084801 -37.034550
lfingers 10.687531
lthumb 17.147549 7.467975
rfemur -49.350449 1.553400 24.065250
rtibia 74.578049
rfoot -29.537998 -15.401100
rtoes -23.341949
lfemur -12.110325 3.770475 -42.683998
ltibia 34.230301
lfoot -26.239649 5.644875
ltoes 5.434200
470
root 16.330500 26.063549 44.429703 6.004410 6.539010 4.649220
lowerback -6.614610 -6.062415 -6.057450
upperback -0.438828 -7.848675 2.702760
thorax 4.044105 -4.005915 5.620050
lowerneck -33.140549 -4.258335 -15.196350
upperneck 37.301098 -4.994085 14.832705
head 18.327900 -1.744830 7.391565
rclavicle -0.000000 -0.000000
rhumerus -70.054199 15.597450 -129.877197
rradius 58.378654
rwrist -29.655449
rhand -38.306702 -59.256447
rfingers 10.687531
rthumb 1.488241 -104.222694
lclavicle -0.000000 -0.000000
lhumerus -19.168800 -29.680050 127.602150
lradius 41.577000
lwrist 7.874460
lhand -22.371149 -37.271103
lfingers 10.687531
lthumb 16.871399 7.246605
rfemur -49.947899 1.400935 23.542801
rtibia 72.404999
rfoot -29.521351 -14.966311
rtoes -22.894499
lfemur -10.711861 3.776640 -43.079399
ltibia 33.009003
lfoot -26.581501 5.387880
ltoes 5.349990
471
root 16.336201 26.061001 44.621998 5.996895 6.772665 3.970245
lowerback -8.126955 -5.940735 -5.050440
upperback 0.705912 -7.690830 2.679645
thorax 5.972820 -3.960585 4.896915
lowerneck -34.137001 -4.610310 -15.284100
upperneck 36.876747 -5.407440 15.072300
head 18.420151 -1.880145 7.422495
rclavicle -0.000000 -0.000000
rhumerus -68.645706 14.303790 -129.281097
rradius 58.406101
rwrist -29.030251
rhand -39.686401 -54.311249
rfingers 10.687531
rthumb 0.155701 -99.280807
lclavicle -0.000000 -0.000000
lhumerus -16.524899 -31.011299 126.690750
lradius 42.066452
lwrist 8.829675
lhand -22.848148 -37.156349
lfingers 10.687531
lthumb 16.411350 7.386120
rfemur -50.603851 1.506720 24.260551
rtibia 70.218002
rfoot -29.145149 -15.301800
rtoes -26.519400
lfemur -9.300765 3.847005 -42.244350
ltibia 31.620449
lfoot -26.630398 5.107785
ltoes 4.304715
472
root 16.339500 26.078699 44.802448 6.061379 6.857759 4.148700
lowerback -9.374625 -6.045615 -5.261820
upperback 1.787340 -7.776240 2.602710
thorax 7.826805 -4.049415 4.795455
lowerneck -35.016151 -4.714995 -15.616501
upperneck 36.156448 -5.518200 15.835949
head 18.351151 -1.835535 7.740450
rclavicle 0.000000 -0.000000
rhumerus -67.142250 13.568999 -128.714996
rradius 58.579502
rwrist -28.450649
rhand -42.103500 -44.673748
rfingers 10.687531
rthumb -2.178840 -89.635956
lclavicle 0.000000 -0.000000
lhumerus -13.874880 -31.450951 125.691299
lradius 42.366299
lwrist 9.711855
lhand -23.216702 -37.212002
lfingers 10.687531
lthumb 16.055700 7.348980
rfemur -51.518105 2.125665 23.804251
rtibia 67.968300
rfoot -29.024849 -15.505951
rtoes -27.999149
lfemur -8.007720 4.027500 -42.340950
ltibia 30.410252
lfoot -26.557648 5.017335
ltoes 5.253540
473
root 16.348949 26.074650 44.987999 5.903535 6.765420 4.860255
lowerback -10.186665 -6.193080 -6.038671
upperback 2.794425 -7.870049 2.410005
thorax 9.414495 -4.157190 4.917720
lowerneck -35.757149 -4.730730 -15.520949
upperneck 35.367599 -5.483505 15.974550
head 18.186150 -1.769205 7.756741
rclavicle 0.000000 -0.000000
rhumerus -65.772598 13.381710 -128.473648
rradius 58.667999
rwrist -29.101049
rhand -40.740150 -48.416550
rfingers 10.687531
rthumb -0.862011 -93.385048
lclavicle 0.000000 -0.000000
lhumerus -11.432835 -31.352699 124.699051
lradius 42.654900
lwrist 10.495755
lhand -23.134501 -37.323902
lfingers 10.687531
lthumb 16.135201 7.232970
rfemur -52.008900 2.802150 22.704451
rtibia 65.607452
rfoot -29.431349 -14.954685
rtoes -26.168850
lfemur -6.282480 4.075290 -43.075500
ltibia 29.073149
lfoot -26.664150 5.181990
ltoes 5.284560
474
root 16.357349 26.062801 45.170097 5.884665 6.656805 4.888095
lowerback -9.426479 -6.167850 -5.943465
upperback 2.222445 -7.875570 2.454435
thorax 8.372790 -4.132980 4.986360
lowerneck -35.007149 -4.598160 -15.255750
upperneck 35.570999 -5.322180 15.418050
head 18.078899 -1.763730 7.519845
rclavicle 0.000000 -0.000000
rhumerus -67.168053 13.797150 -128.756104
rradius 58.668602
rwrist -30.346350
rhand -46.483051 -44.415749
rfingers 10.687531
rthumb -6.408330 -89.321106
lclavicle 0.000000 -0.000000
lhumerus -11.940121 -31.322701 124.951797
lradius 43.333050
lwrist 10.530465
lhand -23.067150 -37.409698
lfingers 10.687531
lthumb 16.200150 7.143855
rfemur -52.609505 3.687780 22.327799
rtibia 63.209999
rfoot -29.763149 -14.425184
rtoes -24.484800
lfemur -4.666230 3.699120 -43.104000
ltibia 27.397800
lfoot -26.566650 5.610495
ltoes 4.402095
475
root 16.362301 26.072399 45.364201 5.949345 6.764835 4.558200
lowerback -7.618035 -6.312915 -5.471040
upperback 0.595258 -8.175165 2.633760
thorax 5.649030 -4.203735 5.074965
lowerneck -33.771000 -4.163280 -14.905320
upperneck 36.951599 -4.880580 14.841720
head 18.297001 -1.647540 7.354770
rclavicle 0.000000 -0.000000
rhumerus -70.342354 14.546431 -129.363892
rradius 58.650299
rwrist -30.923851
rhand -44.933849 -45.065102
rfingers 10.687531
rthumb -4.912260 -89.997002
lclavicle 0.000000 -0.000000
lhumerus -14.586569 -31.092300 125.879547
lradius 44.114853
lwrist 10.350795
lhand -23.617199 -37.812752
lfingers 10.687531
lthumb 15.669449 6.767925
rfemur -53.252396 4.285545 22.410450
rtibia 60.802200
rfoot -29.612850 -14.323874
rtoes -24.787350
lfemur -3.168930 3.268245 -42.702301
ltibia 25.767151
lfoot -26.275349 5.870475
ltoes 7.209585
476
root 16.368000 26.077648 45.570751 5.927055 6.823620 4.793520
lowerback -6.317580 -6.595095 -5.673975
upperback -0.498734 -8.587575 2.663715
thorax 3.846285 -4.365030 5.330700
lowerneck -33.080551 -3.706335 -14.361285
upperneck 37.942200 -4.375785 14.231760
head 18.464249 -1.473158 7.140705
rclavicle 0.000000 0.000000
rhumerus -72.553047 15.106050 -129.721649
rradius 58.864502
rwrist -30.954151
rhand -45.600300 -41.189850
rfingers 10.687531
rthumb -5.555940 -86.111099
lclavicle 0.000000 0.000000
lhumerus -16.334099 -30.708450 126.353241
lradius 44.674049
lwrist 10.573005
lhand -24.051750 -38.169449
lfingers 10.687531
lthumb 15.250349 6.432105
rfemur -53.784748 4.416240 22.038900
rtibia 58.469849
rfoot -29.434952 -13.846066
rtoes -25.825649
lfemur -1.552875 3.241890 -42.888298
ltibia 24.334499
lfoot -26.197201 5.783490
ltoes 9.890550
477
root 16.366051 26.052750 45.764702 6.093090 6.618330 5.238045
lowerback -7.515990 -6.601515 -6.208410
upperback 0.318303 -8.519341 2.605860
thorax 5.405325 -4.380120 5.440335
lowerneck -33.480450 -3.788295 -14.465429
upperneck 37.130249 -4.360800 14.222040
head 18.225601 -1.461570 7.126440
rclavicle 0.000000 -0.000000
rhumerus -71.552551 14.747129 -129.215103
rradius 59.135250
rwrist -30.638252
rhand -46.418549 -37.170151
rfingers 10.687531
rthumb -6.346095 -82.076698
lclavicle 0.000000 -0.000000
lhumerus -14.448599 -31.310848 125.781754
lradius 45.077850
lwrist 11.361975
lhand -23.736000 -38.081398
lfingers 10.687531
lthumb 15.555000 6.505080
rfemur -54.494099 4.986210 21.360600
rtibia 56.231850
rfoot -29.741100 -12.639435
rtoes -24.847649
lfemur -0.153710 3.654150 -43.267799
ltibia 22.851000
lfoot -26.151749 5.583480
ltoes 10.292310
478
root 16.359600 26.023800 45.955799 6.125010 6.398745 5.609415
lowerback -11.827275 -6.383940 -6.584700
upperback 3.844380 -7.998735 2.301045
thorax 11.533350 -4.287885 4.931460
lowerneck -36.094948 -4.437180 -14.790570
upperneck 34.644150 -4.966485 14.976616
head 17.869049 -1.586595 7.298835
rclavicle -0.000000 0.000000
rhumerus -65.984245 12.947535 -128.126556
rradius 58.750351
rwrist -30.230698
rhand -46.783203 -36.021000
rfingers 10.687531
rthumb -6.698220 -80.920349
lclavicle -0.000000 0.000000
lhumerus -7.623105 -33.153000 123.229355
lradius 45.339149
lwrist 12.837225
lhand -23.451000 -37.709549
lfingers 10.687531
lthumb 15.829950 6.863070
rfemur -55.026451 5.910825 20.613901
rtibia 54.151947
rfoot -30.159901 -11.377214
rtoes -22.937550
lfemur 1.475292 4.008930 -43.552200
ltibia 21.119400
lfoot -26.036102 5.555325
ltoes 8.912505
479
root 16.350149 26.015850 46.147800 6.105825 6.286170 5.703705
lowerback -10.326540 -6.401011 -6.618960
upperback 2.699655 -8.084535 2.311485
thorax 9.461730 -4.281075 5.100825
lowerneck -35.195702 -4.132110 -14.275364
upperneck 35.396103 -4.782840 14.689875
head 17.946751 -1.519515 7.151205
rclavicle 0.000000 -0.000000
rhumerus -68.349594 13.082191 -128.416946
rradius 58.972950
rwrist -30.393600
rhand -46.780201 -37.743000
rfingers 10.687531
rthumb -6.695235 -82.642502
lclavicle 0.000000 -0.000000
lhumerus -9.585285 -33.281250 123.966454
lradius 46.150650
lwrist 12.823904
lhand -23.525101 -37.478249
lfingers 10.687531
lthumb 15.758400 7.097910
rfemur -55.611000 7.251930 19.993500
rtibia 52.279503
rfoot -30.446098 -10.873995
rtoes -19.381649
lfemur 3.354630 4.075155 -43.521301
ltibia 18.880051
lfoot -25.635899 5.644785
ltoes 6.718665
